<svg width="41" height="40" viewBox="0 0 41 40" fill="none" xmlns="http://www.w3.org/2000/svg">
<path d="M1 20C1 9.23045 9.73045 0.5 20.5 0.5C31.2696 0.5 40 9.23045 40 20C40 30.7696 31.2696 39.5 20.5 39.5C9.73045 39.5 1 30.7696 1 20Z" stroke="#0D4733"/>
<path d="M22.4286 21.9286C20.8571 23.55 20.7429 25.5714 20.6071 30C24.7357 30 27.5857 29.9857 29.0571 28.5571C30.4857 27.0857 30.5 24.1 30.5 20.1071C26.0714 20.25 24.05 20.3571 22.4286 21.9286ZM10.5 20.1071C10.5 24.1 10.5143 27.0857 11.9429 28.5571C13.4143 29.9857 16.2643 30 20.3929 30C20.25 25.5714 20.1429 23.55 18.5714 21.9286C16.95 20.3571 14.9286 20.2429 10.5 20.1071ZM20.3929 10C16.2714 10 13.4143 10.0143 11.9429 11.4429C10.5143 12.9143 10.5 15.9 10.5 19.8929C14.9286 19.75 16.95 19.6429 18.5714 18.0714C20.1429 16.45 20.2571 14.4286 20.3929 10ZM22.4286 18.0714C20.8571 16.45 20.7429 14.4286 20.6071 10C24.7357 10 27.5857 10.0143 29.0571 11.4429C30.4857 12.9143 30.5 15.9 30.5 19.8929C26.0714 19.75 24.05 19.6429 22.4286 18.0714Z" fill="#0D4733"/>
</svg>
